<svg width="242" height="40" xmlns="http://www.w3.org/2000/svg"><g fill="none"><path d="M97.082 11.68h6.356c1.539 0 3.002.173 4.387.516 1.385.345 2.594.901 3.627 1.67 1.032.77 1.85 1.771 2.458 3.003.607 1.232.91 2.726.91 4.482 0 1.558-.294 2.93-.883 4.116a8.845 8.845 0 0 1-2.377 2.988c-.996.806-2.146 1.417-3.45 1.834a13.39 13.39 0 0 1-4.102.624h-6.926V11.68zm4.237 15.321h2.2c.979 0 1.888-.099 2.73-.299.843-.199 1.571-.53 2.188-.99a4.776 4.776 0 0 0 1.453-1.821c.353-.751.53-1.67.53-2.758 0-.94-.177-1.76-.53-2.458a4.925 4.925 0 0 0-1.426-1.725 6.274 6.274 0 0 0-2.106-1.019 9.375 9.375 0 0 0-2.54-.34h-2.499v11.41zm22.71-15.321h3.504l8.367 19.233h-4.781l-1.657-4.074h-7.47l-1.603 4.074h-4.673l8.313-19.233zm1.63 5.596l-2.337 5.977h4.7l-2.363-5.977zm13.392-1.847h-5.487V11.68h15.212v3.749h-5.487v15.484h-4.238V15.43zm15.701-3.749h3.505l8.366 19.233h-4.781l-1.657-4.074h-7.47l-1.603 4.074h-4.673l8.313-19.233zm1.63 5.596l-2.336 5.977h4.7l-2.364-5.977zm12.659-5.596h2.69l7.008 16.136 7.01-16.136h2.552v19.233h-1.792v-16.95h-.054l-7.335 16.95h-.788l-7.443-16.95h-.054v16.95h-1.793V11.68zm23.09 9.617c0-1.467.244-2.816.733-4.048.49-1.23 1.169-2.296 2.038-3.192a9.253 9.253 0 0 1 3.138-2.105c1.222-.507 2.567-.76 4.034-.76 1.467 0 2.81.253 4.034.76 1.222.507 2.268 1.209 3.137 2.105.87.896 1.549 1.961 2.038 3.192.488 1.232.733 2.58.733 4.048 0 1.467-.244 2.82-.733 4.061-.49 1.24-1.168 2.31-2.038 3.206-.87.896-1.916 1.593-3.137 2.091-1.223.498-2.567.747-4.034.747-1.467 0-2.812-.25-4.034-.747-1.223-.498-2.269-1.195-3.138-2.091-.87-.897-1.548-1.965-2.038-3.206-.489-1.24-.733-2.595-.733-4.06zm1.793 0c0 1.194.19 2.309.57 3.341a7.941 7.941 0 0 0 1.63 2.69 7.52 7.52 0 0 0 2.568 1.792c1.005.434 2.132.652 3.381.652 1.25 0 2.377-.217 3.382-.652a7.539 7.539 0 0 0 2.567-1.792 7.923 7.923 0 0 0 1.63-2.69c.38-1.032.57-2.147.57-3.34 0-1.196-.19-2.31-.57-3.343a7.925 7.925 0 0 0-1.63-2.688 7.524 7.524 0 0 0-2.567-1.794c-1.005-.433-2.132-.652-3.382-.652s-2.377.218-3.381.652a7.54 7.54 0 0 0-2.568 1.794 7.932 7.932 0 0 0-1.63 2.688c-.38 1.033-.57 2.147-.57 3.342zm22.112-9.617h1.793v17.604h8.964v1.63h-10.757V11.68zm13.583 0h11.762v1.63h-9.97v6.846h9.346v1.63h-9.346v7.498h10.405v1.63H229.62V11.68zM15.317 32.335c1.72-2.848 2.968-2.771 5.482-3.761 3.547-1.398 6.504-2.097 10.641-4.032 4.839-2.262 9.783 0 7.847 5.806-1.934 5.803-7.04 8.383-7.04 8.383s1.936-4.192.807-4.676c-1.129-.483-4.03 4.98-9.03 4.819-3.748-.121-.716-.089 1.273-2.832.739-1.017 1.557-2.113 1.451-2.758-.7-1.29-2.831 2.167-6.862 4.157-1.128.483.143-3.708 1.756-4.838 1.129-.699-2.939-.805-5.035-.161-2.096.646 3.709-.214 3.225.646s-2.419 3.17-.806 5.32c.806.483 5.266-2.742 6.611-4.46 0 0-2.096 2.848-4.514 4.46-2.42 1.613 7.093 3.44 11.5-3.385 0 0-.376 2.58-1.343 4.515-.967 1.935 8.224-2.742 9.89-10.105.996-4.405-2.47-10.133-12.309-5.214-10.75 5.375-12.147 3.01-13.544 8.116zm36.415 4.295s3.53-8.381 11.353-7.69c7.661.716 7.891 6.79-.9 8.59 0 0 2.326-2.828 1.98-3.404-.346-.577-1.843.659-8.21 3.266-1.662.531 1.465-1.656 1.673-3.434.207-1.776-4.513 1.495-5.136 2.396-.622.899.254-.3 3.877-2.147 1.062.185-3.392 3.946-1.107 3.878 2.676-.323 6.276-2.539 7.824-3.116 1.222-.692-2.009 3.184-2.009 3.184s9.345-.9 8.654-6.023c-.693-5.123-14.33-7.684-17.999 4.5z" fill="#5F6161"/><path d="M1.699 17.128s4.988-.86 13.76-12.124c8.77-11.265 20.92-.172 23.156 1.117 2.235 1.29 17.365 4.665 19.915 13.025 2.414 7.915-4.31 14.193-17.875 13.976 0 0 9.432-2.295 12.408-5.826 3.04-3.61 3.44-6.957-1.806-11.429-5.325-4.54-10.933-5.27-15.419-7.953C32.5 5.918 24.402-1.2 16.404 7.313c-7.997 8.512-11.006 9.04-14.705 9.815z" fill="#99CA3C"/><path d="M5.59 18.568s6.437-6.266 13.028-11.517c6.55-5.219 11.159-.726 15.07 1.548 2.683 1.56 13.182 4.718 16.065 8.829 2.916 4.153 2.136 11.607-7.456 12.086 0 0 8.1-3.227 5.29-9.861 0 0-1.255-3.407-9.098-5.822-7.063-2.175-7.53-3.127-9.616-4.284-1.978-1.097-7.051-2.157-13.028 2.701-7.12 5.789-10.254 6.32-10.254 6.32z" fill="#99CA3C"/><path d="M2.69 21.815s3.534-.297 9.415-5.332c7.48-6.407 13.83-8.06 16.23-4.06 2.458 3.562-3.042 7.829-5.976 4.895-2.134-2.134.159-5.024 2.21-5.262 1.85-.215 2.484 2.342 2.162 2.471-.322.13-.63-1.832-2.173-1.432a1.333 1.333 0 0 0-.875 1.839c.456.947 1.57 1.07 2.195.535 1.72-1.475-1.29-6.444-10.097.218-2.11 1.598-9.158 7.611-13.092 6.128z" fill="#5F6161"/><path d="M8.486 23.06s6.766 2.667 12.625.238c6.67-2.765 11.668-6.818 18.505-4.108 4.498 1.782 2.713 7.563 2.713 7.563s-.499-9.192-14.037-3.755c-5.212 2.092-13.322 6.884-19.806.062zM40.652 6.289c-.037-.04 6.263-.657 6.908-.723.644-.064 7.2.459 11.873 3.737 8.426 5.914 5.477 16.938-.092 18.19 0 0 10.266-17.778-18.689-21.204z" fill="#99CA3C"/><path d="M57.796 4.053s7.242 1.002 11.102 5.125c4.811 5.142 3.596 15.722-4.642 18.556 0 0 4.432-4.326 3.882-10.201-.48-5.1-3.698-12.245-17.785-12.576l7.443-.904z" fill="#99CA3C"/><path d="M60.038 3.456S74.146.513 80.723 10.938c5.002 7.924 5.42 25.832-11.004 28.72 0 0 9.327-11.088 6.49-18.45 0 0-.27 6.89-7.618 8.17 0 0 9.24-5.198 4.106-19.314 0 0 12.968 11.01 1.75 25.85 0 0 8.877-4.796 5.695-17.866C76.961 4.977 60.038 3.456 60.038 3.456z" fill="#99CA3C"/><path d="M1.769 17.268S-.777 19.35.535 21.82c.644 1.213 5.068-.29 4.861-3.164-.154-2.16-2.932-1.62-2.932-1.62s3.627 1.08 1.699 2.855c-1.93 1.776-2.623 1.482-2.933.77-.541-1.234.539-3.393.539-3.393z" fill="#5F6161"/></g></svg>